<svg xmlns="http://www.w3.org/2000/svg" width="156.901" height="27.156" viewBox="0 0 156.901 27.156">
  <g id="Group_136" data-name="Group 136" transform="translate(-1642.31 94)">
    <path id="Path_200" data-name="Path 200" d="M7.266-2.707a3.139,3.139,0,0,1-1,2.089A3.274,3.274,0,0,1,4.031.117,3.006,3.006,0,0,1,1.608-.967,4.361,4.361,0,0,1,.7-3.867v-.82a4.861,4.861,0,0,1,.425-2.092,3.173,3.173,0,0,1,1.2-1.386,3.353,3.353,0,0,1,1.8-.483,3.083,3.083,0,0,1,2.18.759,3.176,3.176,0,0,1,.955,2.1H6.135A2.451,2.451,0,0,0,5.5-7.27a1.924,1.924,0,0,0-1.368-.458,2.013,2.013,0,0,0-1.69.8,3.661,3.661,0,0,0-.612,2.269v.827a3.764,3.764,0,0,0,.58,2.211A1.874,1.874,0,0,0,4.031-.8,2.165,2.165,0,0,0,5.47-1.228a2.357,2.357,0,0,0,.665-1.479ZM12.545,0a2.277,2.277,0,0,1-.152-.668,2.419,2.419,0,0,1-1.8.785A2.238,2.238,0,0,1,9.05-.413a1.716,1.716,0,0,1-.6-1.345A1.792,1.792,0,0,1,9.2-3.3a3.55,3.55,0,0,1,2.118-.548h1.055v-.5a1.217,1.217,0,0,0-.34-.905,1.366,1.366,0,0,0-1-.337,1.581,1.581,0,0,0-.973.293.863.863,0,0,0-.393.709H8.578A1.5,1.5,0,0,1,8.915-5.5a2.3,2.3,0,0,1,.914-.7A3.075,3.075,0,0,1,11.1-6.457a2.506,2.506,0,0,1,1.717.548A1.976,1.976,0,0,1,13.459-4.4v2.918a3.567,3.567,0,0,0,.223,1.389V0Zm-1.8-.826a1.905,1.905,0,0,0,.967-.264,1.6,1.6,0,0,0,.662-.686v-1.3h-.85q-1.992,0-1.992,1.166a.987.987,0,0,0,.34.8A1.306,1.306,0,0,0,10.746-.826ZM16.336,0H15.252V-9h1.084Zm2.912,0H18.164V-9h1.084ZM30.68,0H29.549L25.254-6.574V0H24.123V-8.531h1.131l4.307,6.6v-6.6H30.68Zm1.541-3.229A3.745,3.745,0,0,1,32.587-4.9a2.732,2.732,0,0,1,1.02-1.148,2.775,2.775,0,0,1,1.491-.4,2.674,2.674,0,0,1,2.095.9,3.449,3.449,0,0,1,.8,2.385V-3.1a3.777,3.777,0,0,1-.354,1.661A2.692,2.692,0,0,1,36.624-.293a2.807,2.807,0,0,1-1.515.41,2.667,2.667,0,0,1-2.089-.9,3.432,3.432,0,0,1-.8-2.373Zm1.09.129A2.712,2.712,0,0,0,33.8-1.406a1.566,1.566,0,0,0,1.31.639,1.556,1.556,0,0,0,1.313-.647,2.966,2.966,0,0,0,.486-1.813,2.708,2.708,0,0,0-.5-1.69A1.574,1.574,0,0,0,35.1-5.566a1.557,1.557,0,0,0-1.295.639A2.944,2.944,0,0,0,33.311-3.1ZM44.965-1.494,46.184-6.34h1.084L45.422,0h-.879L43-4.8,41.5,0h-.879l-1.84-6.34h1.078l1.248,4.746L42.586-6.34h.873ZM5.422,11.633h2.82v2.039H5.422v3.188H3.273V13.672H.445V11.633H3.273V8.578H5.422Zm9.367,1.82a2.851,2.851,0,0,1-2.062.867,3.049,3.049,0,0,1-2.414-1.035,4.091,4.091,0,0,1-.906-2.793,4.357,4.357,0,0,1,.488-2.051,3.582,3.582,0,0,1,1.363-1.453,3.782,3.782,0,0,1,1.969-.52,3.617,3.617,0,0,1,2,.563,3.7,3.7,0,0,1,1.359,1.617,5.806,5.806,0,0,1,.492,2.414V11.9a6.579,6.579,0,0,1-1.414,4.469A5.346,5.346,0,0,1,11.656,18.1l-.555.008V16.227l.5-.008Q14.547,16.086,14.789,13.453Zm-1.508-.859a1.579,1.579,0,0,0,.941-.281,1.879,1.879,0,0,0,.6-.68V10.7a3.1,3.1,0,0,0-.437-1.781,1.358,1.358,0,0,0-1.172-.633,1.318,1.318,0,0,0-1.117.621,2.641,2.641,0,0,0-.437,1.559A2.57,2.57,0,0,0,12.082,12,1.387,1.387,0,0,0,13.281,12.594ZM24.172,18H21.914V9.3l-2.7.836V8.3L23.93,6.609h.242Zm12.961-4.547a2.851,2.851,0,0,1-2.062.867,3.049,3.049,0,0,1-2.414-1.035,4.091,4.091,0,0,1-.906-2.793,4.357,4.357,0,0,1,.488-2.051A3.582,3.582,0,0,1,33.6,6.988a3.782,3.782,0,0,1,1.969-.52,3.617,3.617,0,0,1,2,.563A3.7,3.7,0,0,1,38.93,8.648a5.806,5.806,0,0,1,.492,2.414V11.9a6.579,6.579,0,0,1-1.414,4.469A5.346,5.346,0,0,1,34,18.1l-.555.008V16.227l.5-.008Q36.891,16.086,37.133,13.453Zm-1.508-.859a1.579,1.579,0,0,0,.941-.281,1.879,1.879,0,0,0,.6-.68V10.7a3.1,3.1,0,0,0-.437-1.781,1.358,1.358,0,0,0-1.172-.633,1.318,1.318,0,0,0-1.117.621A2.641,2.641,0,0,0,34,10.469,2.57,2.57,0,0,0,34.426,12,1.387,1.387,0,0,0,35.625,12.594ZM48.766,7.885,44.367,18H41.984l4.406-9.555H40.734V6.625h8.031ZM55.7,18H53.438V9.3l-2.7.836V8.3l4.711-1.687H55.7Zm9.18,0H62.617V9.3l-2.7.836V8.3l4.711-1.687h.242Zm11.352-4.7a5.763,5.763,0,0,1-.977,3.609,3.9,3.9,0,0,1-5.7.023,5.594,5.594,0,0,1-1.008-3.516V11.32A5.687,5.687,0,0,1,69.527,7.7a3.91,3.91,0,0,1,5.691-.012A5.576,5.576,0,0,1,76.227,11.2Zm-2.258-2.3a4.165,4.165,0,0,0-.387-2.061,1.307,1.307,0,0,0-1.207-.645A1.284,1.284,0,0,0,71.2,8.9a3.9,3.9,0,0,0-.4,1.92v2.768a4.373,4.373,0,0,0,.379,2.068,1.29,1.29,0,0,0,1.215.676,1.268,1.268,0,0,0,1.2-.649,4.268,4.268,0,0,0,.383-1.986ZM83.234,18H80.977V9.3l-2.7.836V8.3l4.711-1.687h.242Zm11.352-4.7a5.763,5.763,0,0,1-.977,3.609,3.9,3.9,0,0,1-5.7.023A5.594,5.594,0,0,1,86.9,13.414V11.32A5.687,5.687,0,0,1,87.887,7.7a3.91,3.91,0,0,1,5.691-.012A5.576,5.576,0,0,1,94.586,11.2Zm-2.258-2.3a4.165,4.165,0,0,0-.387-2.061,1.307,1.307,0,0,0-1.207-.645,1.284,1.284,0,0,0-1.176.614,3.9,3.9,0,0,0-.4,1.92v2.768a4.373,4.373,0,0,0,.379,2.068,1.29,1.29,0,0,0,1.215.676,1.268,1.268,0,0,0,1.2-.649,4.268,4.268,0,0,0,.383-1.986ZM103.906,18h-7.8V16.453l3.68-3.922a9.078,9.078,0,0,0,1.121-1.445,2.322,2.322,0,0,0,.363-1.172,1.738,1.738,0,0,0-.383-1.191A1.382,1.382,0,0,0,99.8,8.289a1.49,1.49,0,0,0-1.207.527,2.089,2.089,0,0,0-.441,1.387H95.883a3.729,3.729,0,0,1,.5-1.9,3.5,3.5,0,0,1,1.4-1.348,4.262,4.262,0,0,1,2.055-.488,4.036,4.036,0,0,1,2.73.844,2.985,2.985,0,0,1,.973,2.383,3.825,3.825,0,0,1-.437,1.719,9.551,9.551,0,0,1-1.5,2.039L99.016,16.18h4.891Zm3.68-6.687h1.2a1.7,1.7,0,0,0,1.273-.43,1.575,1.575,0,0,0,.414-1.141,1.392,1.392,0,0,0-.41-1.07,1.59,1.59,0,0,0-1.129-.383,1.666,1.666,0,0,0-1.086.355,1.137,1.137,0,0,0-.437.926h-2.258a2.777,2.777,0,0,1,.48-1.6,3.2,3.2,0,0,1,1.344-1.105,4.485,4.485,0,0,1,1.9-.4,4.253,4.253,0,0,1,2.828.863,2.945,2.945,0,0,1,1.023,2.379,2.394,2.394,0,0,1-.477,1.438,3.1,3.1,0,0,1-1.25,1.008,2.826,2.826,0,0,1,1.434,1.031,2.8,2.8,0,0,1,.473,1.625,2.994,2.994,0,0,1-1.105,2.43,4.445,4.445,0,0,1-2.926.914,4.214,4.214,0,0,1-2.785-.9,2.934,2.934,0,0,1-1.082-2.375h2.258a1.308,1.308,0,0,0,.48,1.047,2,2,0,0,0,2.445-.02,1.47,1.47,0,0,0,.457-1.129q0-1.7-1.875-1.7h-1.2Zm7.219,1.094.656-5.781h6.375V8.508h-4.523l-.281,2.445a3.58,3.58,0,0,1,1.711-.43,3.279,3.279,0,0,1,2.547,1.008,4.026,4.026,0,0,1,.922,2.82,4.124,4.124,0,0,1-.465,1.973,3.281,3.281,0,0,1-1.332,1.352,4.158,4.158,0,0,1-2.047.48,4.416,4.416,0,0,1-1.914-.418,3.4,3.4,0,0,1-1.395-1.176,3.2,3.2,0,0,1-.543-1.727h2.234a1.669,1.669,0,0,0,.5,1.105,1.573,1.573,0,0,0,1.113.395,1.388,1.388,0,0,0,1.18-.551,2.551,2.551,0,0,0,.414-1.559,2.11,2.11,0,0,0-.477-1.484,1.749,1.749,0,0,0-1.352-.516,1.954,1.954,0,0,0-1.3.422l-.219.2Z" transform="translate(1677 -85)" fill="#e6f3f0"/>
    <g id="_x31_4_phonebook" transform="translate(1485.805 -101.685)">
      <g id="Group_105" data-name="Group 105" transform="translate(156.504 11)">
        <g id="layer1" transform="translate(0 0)">
          <path id="path453461" d="M173.7,301.9a.834.834,0,0,0-.127,1.65,2.491,2.491,0,0,1,1.933,2.967.835.835,0,0,0,1.633.344,4.186,4.186,0,0,0-3.223-4.944A.835.835,0,0,0,173.7,301.9Z" transform="translate(-160.466 -295.315)" fill="#fff" fill-rule="evenodd"/>
          <path id="path453441" d="M174.479,297.985a.835.835,0,0,0-.083,1.646,5.83,5.83,0,0,1,4.512,6.921.835.835,0,1,0,1.633.344,7.524,7.524,0,0,0-5.8-8.9.834.834,0,0,0-.261-.013Z" transform="translate(-160.602 -294.668)" fill="#fff" fill-rule="evenodd"/>
          <path id="path453433" d="M175.238,294.081a.835.835,0,0,0-.018,1.637,9.168,9.168,0,0,1,7.091,10.876.835.835,0,1,0,1.633.344,10.863,10.863,0,0,0-8.38-12.853A.835.835,0,0,0,175.238,294.081Z" transform="translate(-160.739 -294.021)" fill="#fff" fill-rule="evenodd"/>
          <path id="path453419" d="M162.156,294.012a2.284,2.284,0,0,0-2.046,1.122,14.693,14.693,0,0,0-.152,14.917l0,0a14.765,14.765,0,0,0,13.026,7.324,2.313,2.313,0,0,0,2.147-1.531l1.2-3.061a2.733,2.733,0,0,0-.809-3.1l-2.153-1.765a2.372,2.372,0,0,0-3.528.632l-.807,1.377a8.29,8.29,0,0,1-3.413-3.143v0a8.246,8.246,0,0,1-1-4.744l1.527.1a2.268,2.268,0,0,0,2.362-2.615l-.456-2.737a2.735,2.735,0,0,0-2.282-2.25l-3.263-.5a2.683,2.683,0,0,0-.355-.031Zm.1,1.681,3.263.5a1.054,1.054,0,0,1,.887.874l.456,2.737a.562.562,0,0,1-.61.673l-2.411-.155a.835.835,0,0,0-.877.7,10.027,10.027,0,0,0,1.21,6.6v0a10.064,10.064,0,0,0,4.83,4.229.835.835,0,0,0,1.042-.349l1.234-2.109a.671.671,0,0,1,1.029-.184l2.152,1.767a1.049,1.049,0,0,1,.313,1.2l-1.2,3.061a1.416,1.416,0,0,1-.623.471A12.992,12.992,0,0,1,161.54,296a1.421,1.421,0,0,1,.721-.3Z" transform="translate(-158 -294.011)" fill="#fff" fill-rule="evenodd"/>
        </g>
      </g>
    </g>
  </g>
</svg>
