<svg xmlns="http://www.w3.org/2000/svg" width="105.485" height="105.505" viewBox="0 0 105.485 105.505"><g transform="translate(0.229 0.25)"><path d="M21.15,0c.88,1.05,1.17,2.24,2.12,3.28a9.861,9.861,0,0,0,6.7,2.88c1.73.12,9.78-.3,10.53.18a1.713,1.713,0,0,1,.44.62c-.36,8.11,1.31,17.62-1.13,25.44-.29.91-1.49,4.26-2.35,4.61-.67.28-1.62.08-1.74-.66-.14-.86,1.26-3.24,1.63-4.36a28.544,28.544,0,0,0,1.24-7.27c.27-5.36-.22-10.93,0-16.31h-9.5a17.192,17.192,0,0,1-2.91-.61A12.1,12.1,0,0,1,20.6,3.9a12.6,12.6,0,0,1-6.1,4.04,18.262,18.262,0,0,1-2.39.47H2.6c.27,5.7-.36,11.67,0,17.34.63,10.2,7.52,18.36,18.01,21.64A28.826,28.826,0,0,0,32.46,40.2c.79-.77,1.29-2.32,2.74-1.7,1.34.57.42,1.68-.17,2.41a27.537,27.537,0,0,1-7.82,6.16c-1.09.58-5.83,2.82-6.79,2.76a37.374,37.374,0,0,1-5.29-2.14C6.18,43.28.68,35.28.13,25.95-.24,19.7.33,13.06.26,6.77l.89-.61c5.28-.43,12.6,1.45,16.54-2.67C18.73,2.41,19.09,1.1,20.03,0h1.12Z" fill="#fff" stroke="#fff" stroke-width="0.5"/><path d="M83.08,43.27l7.14-3.09c.39-.49-2.63-5.74-2.18-6.81.94-1.13,1.76-.73,2.39.39a47.344,47.344,0,0,1,2.66,6.59c.06.43.14.79-.28,1.08L58.98,56.33l-8.54,1.8-.23.61c.42,1.19,6.82-2.16,5.69,1.33-2.47,1.89-4.86,3.9-7.38,5.74-1.56,1.14-4.46,2.64-5.67,3.82-.78.76-.3,1.62.73,1.72,3.25-1.15,7.65-1.58,10.73-2.89s3.51-5.06,6.02-6.78l41.71-17.62-.13-.96L88.52,7.8a1.168,1.168,0,0,1,1.92-1.12l14.55,37.94-.22.62L81.5,55.31a55,55,0,0,0,.49,9.16c1.75,12.06,9.03,22.19,11.93,33.96.3,1.21,1.42,5.33.8,6.22a1.369,1.369,0,0,1-2.15-.47c-.5-1.34-.69-3.77-1.1-5.34C88.22,86.47,80.65,75.91,79.29,63.06a52.888,52.888,0,0,1-.23-6.66L61.63,63.69c-2.22,2.41-3.06,5.6-6.49,6.96-1.55.61-10.1,2.97-11.51,2.99-3.19.05-4.85-3.26-2.72-5.48,1.09-1.14,4.33-2.87,5.84-3.98a42.426,42.426,0,0,0,3.47-2.76c-3.09-.86-3.43-4.54-.23-5.54,2.9-.91,6.45-1.08,9.39-2.05l20.81-9.26c1.18-5.41,3.45-10.52,5.27-15.76-4.14-3.95-6.07-9.74-6.42-15.16-.07-1.17-.17-5.78.21-6.59a1.237,1.237,0,0,1,2.21.06c.39,1.19-.06,4.75.05,6.32A24.547,24.547,0,0,0,84.99,24.6c.94,1.39,2.23,2.29,3.16,3.63L83.07,43.28Z" fill="#fff" stroke="#fff" stroke-width="0.5"/><path d="M65.97,19.68a9.487,9.487,0,0,0,8.01-6.39c.61-2.12.27-4.38,1.03-6.44a1.259,1.259,0,0,1,2.24.64c-.38,1.99-.3,4.06-.77,6.04-1.08,4.55-5.52,7.95-10.54,8.37-3.28.28-8.71-.52-11.55.07A38.461,38.461,0,0,0,49.26,25c-3.32,2.93-.72,8.17,2.88,9.81.9.41,3.77.86,4.05,1.11.88.79-.05,1.71-.83,2.12-3.99,2.05-8.39,3.14-12.25,5.58C20.58,57.89,30.94,92.12,58.14,93.9c2.06.14,5.28-.32,7.1.05a1.761,1.761,0,0,1,.95.57,1.316,1.316,0,0,1-.34,1.54c-7.92.67-16.16-.46-22.8-4.62-.26,2.08-.7,4.17-.89,6.26-.18,1.87.05,4.45-.24,6.14a1.37,1.37,0,0,1-2.07.95c-.56-.33-.42-3.83-.38-4.64a91.546,91.546,0,0,1,1.32-10A32.983,32.983,0,0,1,30.54,76.99,28.3,28.3,0,0,1,42.27,41.4c2.92-1.79,6.18-2.93,9.28-4.4-4.37-1.71-7.44-6.65-5.92-10.96,1.21-3.43,5.57-4.53,8.26-6.57a27.5,27.5,0,0,0,7.27-9.73c.59-1.41.52-4.05,2.75-3.2.98.58-.23,3.54-.57,4.38-1.34,3.31-3.74,6.12-6.21,8.76,2.81-.21,6.08.28,8.83,0Z" fill="#fff" stroke="#fff" stroke-width="0.5"/><path d="M36.52,10.3a1.732,1.732,0,0,1,.29,1.07,112,112,0,0,1-.01,14.77A21.818,21.818,0,0,1,25.38,43.55a28.967,28.967,0,0,1-4.36,1.96c-1.27.16-4.61-1.55-5.8-2.24A22.7,22.7,0,0,1,5.78,32.45C3.54,26.68,4.53,20.19,4.5,14.15a1.281,1.281,0,0,1,2.29.14c.4,5.55-.77,11.46,1.1,16.83s6.82,10.07,12.7,12.07A21.1,21.1,0,0,0,32.43,33.01c3.13-6.49,1.51-13.82,1.91-20.7-4.85.16-9.72-.17-13.75-2.87a19.308,19.308,0,0,1-9.84,2.87c-1.13.06-5.38.2-6.03-.41-.94-.88-.06-1.87,1.13-2.03,4.61-.61,7.27.92,11.94-1.55.81-.43,2.03-1.57,2.79-1.56.65.01,2.61,1.54,3.49,1.94a13.435,13.435,0,0,0,4.32,1.16c1.61.12,7.23-.4,8.11.45Z" fill="#fff" stroke="#fff" stroke-width="0.5"/><path d="M12.29,32.94c-8.28-7.61-.23-20.37,11.28-17.42,1.31.34,6.38,2.58,4.64,4.17-1.21,1.11-2.54-.81-3.69-1.35C17.74,15.11,9.99,20.5,11.6,27.32c2.08,8.81,16.67,8.37,17.61-1.6.06-.67-.61-1.99.6-2.31,2.58-.7,1.77,3.25,1.48,4.45-1.89,7.79-12.8,10.78-19,5.09Z" fill="#fff" stroke="#fff" stroke-width="0.5"/><path d="M13.38,24.66a1.582,1.582,0,0,1,.94-.25c1.18.09,4.02,3.55,5.16,4.3L31.61,17.88a1.166,1.166,0,0,1,1.07,2.03L19.93,31.4a1.322,1.322,0,0,1-.59.08c-1.21-.14-4.73-4.3-6.02-5.11a1.524,1.524,0,0,1,.06-1.7Z" fill="#fff" stroke="#fff" stroke-width="0.5"/><path d="M26.23,60.34c.45.52.49,1.73-.31,1.95-2.02.56-4.74-3.4-5.27-4.93-.48-1.38-1.66-6.52,1.06-6.11,1.23.19.7,1.89.8,2.77a7.834,7.834,0,0,0,2.05,5.1c.44.44,1.41.9,1.68,1.22Z" fill="#fff" stroke="#fff" stroke-width="0.5"/></g></svg>