<?xml version="1.0" encoding="utf-8"?>
<!-- Generator: Adobe Illustrator 25.4.1, SVG Export Plug-In . SVG Version: 6.00 Build 0)  -->
<svg version="1.1" id="Layer_1" xmlns="http://www.w3.org/2000/svg" xmlns:xlink="http://www.w3.org/1999/xlink" x="0px" y="0px"
	 viewBox="0 0 105 105" style="enable-background:new 0 0 105 105;" xml:space="preserve">
<style type="text/css">
	.st0{fill:none;stroke:#F1F2F2;stroke-width:2;stroke-miterlimit:10;}
	.st1{fill:none;stroke:#F1F2F2;stroke-miterlimit:10;}
</style>
<circle class="st0" cx="37.19" cy="12.32" r="3.68"/>
<circle class="st1" cx="37.31" cy="12.44" r="1.34"/>
<path class="st0" d="M36.49,25.17l3.66,0.43l3.36,8.26l-6.3,6.6l-8.64-1.02l-0.34-0.98l-2.38-7.91l0.55-0.68
	c1.27-1.73,2.54-3.47,3.82-5.2c1.85,0.19,3.7,0.38,5.55,0.56l0.2-1.74l0.65-6.72"/>
<path class="st0" d="M24.85,31.33l-8.52-1.31c-1.79,2.36-3.58,4.72-5.37,7.08c0.96,2.84,1.92,5.68,2.88,8.52
	c3.01,0.26,6.03,0.52,9.04,0.79c1.7-1.99,3.41-3.97,5.11-5.96L24.85,31.33z"/>
<path class="st0" d="M23.01,46.61l3.41,7.99c3.01,0.59,6.03,1.17,9.04,1.76c1.8-2.33,3.61-4.67,5.41-7l-3.05-9.04"/>
<line class="st0" x1="35.51" y1="56.79" x2="38.78" y2="63.96"/>
<ellipse class="st0" cx="40.48" cy="67.76" rx="3.37" ry="3.45"/>
<circle class="st1" cx="40.35" cy="67.89" r="1.23"/>
<line class="st0" x1="37.4" y1="70.49" x2="32.7" y2="75.19"/>
<circle class="st0" cx="29.68" cy="77.67" r="3.26"/>
<circle class="st1" cx="29.68" cy="77.67" r="1.1"/>
<path class="st0" d="M62.59,30.02h18.48c0,0,6.68,4.06-1.05,7.08H63.77C63.77,37.1,57.74,35,62.59,30.02z"/>
<path class="st0" d="M81.04,55.51c2.97,1.29,12.88,8.27,12.88,19.1c0,11.58-9.83,20.97-21.95,20.97s-21.95-9.39-21.95-20.97
	c0-8.36,5.12-15.58,12.54-18.95c0.78-0.35,1.59-0.67,2.42-0.93"/>
<path class="st0" d="M77.13,54.46"/>
<path class="st0" d="M75.05,54.08"/>
<polyline class="st0" points="78.84,37.96 78.84,54.21 81.68,55.8 "/>
<line class="st0" x1="64.53" y1="37.1" x2="64.53" y2="55.6"/>
<line class="st0" x1="51.31" y1="70.49" x2="93.21" y2="70.49"/>
</svg>
